<?xml version="1.0" encoding="UTF-8" standalone="no"?>
<svg
   xmlns:dc="http://purl.org/dc/elements/1.1/"
   xmlns:cc="http://creativecommons.org/ns#"
   xmlns:rdf="http://www.w3.org/1999/02/22-rdf-syntax-ns#"
   xmlns:svg="http://www.w3.org/2000/svg"
   xmlns="http://www.w3.org/2000/svg"
   xmlns:sodipodi="http://sodipodi.sourceforge.net/DTD/sodipodi-0.dtd"
   xmlns:inkscape="http://www.inkscape.org/namespaces/inkscape"
   width="16"
   height="16"
   viewBox="0 0 4.2333332 4.2333335"
   version="1.1"
   id="svg8"
   sodipodi:docname="favicon.svg"
   inkscape:version="1.0.1 (3bc2e813f5, 2020-09-07, custom)">
  <sodipodi:namedview
     pagecolor="#ffffff"
     bordercolor="#666666"
     borderopacity="1"
     objecttolerance="10"
     gridtolerance="10"
     guidetolerance="10"
     inkscape:pageopacity="0"
     inkscape:pageshadow="2"
     inkscape:window-width="1955"
     inkscape:window-height="1518"
     id="namedview14"
     showgrid="false"
     inkscape:zoom="21.124815"
     inkscape:cx="-4.8219053"
     inkscape:cy="16.8788"
     inkscape:window-x="543"
     inkscape:window-y="405"
     inkscape:window-maximized="0"
     inkscape:current-layer="svg8" />
  <defs
     id="defs2" />
  <metadata
     id="metadata5">
    <rdf:RDF>
      <cc:Work
         rdf:about="">
        <dc:format>image/svg+xml</dc:format>
        <dc:type
           rdf:resource="http://purl.org/dc/dcmitype/StillImage" />
        <dc:title />
      </cc:Work>
    </rdf:RDF>
  </metadata>
  <rect
     style="fill:#002434;stroke:none;stroke-width:0.264583;stroke-linejoin:round;fill-opacity:1"
     id="rect844"
     width="4.2333336"
     height="4.2333336"
     x="0"
     y="0"
     ry="0.52916664" />
  <g
     id="Layer_2"
     data-name="Layer 2"
     transform="matrix(0.01230438,0,0,0.01230438,0.518255,0.26451644)"
     style="stroke-width:21.5031;fill:#ffffff;fill-opacity:1">
    <g
       id="Helix"
       style="stroke-width:21.5031;fill:#ffffff;fill-opacity:1">
      <g
         id="_Group_"
         data-name="&lt;Group&gt;"
         style="stroke-width:21.5031;fill:#ffffff;fill-opacity:1">
        <path
           class="cls-1"
           d="M 141.35,1.6 30.91,143.77 a 4.13,4.13 0 0 0 3.27,6.67 h 220.87 a 4.13,4.13 0 0 0 3.26,-6.67 L 147.88,1.6 a 4.14,4.14 0 0 0 -6.53,0 z"
           id="path8"
           style="stroke-width:21.5031;fill:#ffffff;fill-opacity:1" />
        <path
           class="cls-1"
           d="M 72.89,47.28 0.82,143.93 a 4.1,4.1 0 0 0 3.29,6.55 h 144.14 a 4.1,4.1 0 0 0 3.29,-6.55 L 79.47,47.28 a 4.11,4.11 0 0 0 -6.58,0 z"
           id="path10"
           style="stroke-width:21.5031;fill:#ffffff;fill-opacity:1" />
        <path
           class="cls-1"
           d="m 167.83,285.75 v 0 a 7.42,7.42 0 0 1 -7.41,-7.52 7.52,7.52 0 0 1 7.52,-7.52 h 15.29 a 7.52,7.52 0 1 0 0,-15 h -32 a 7.53,7.53 0 0 1 0,-15 h 45.47 a 7.53,7.53 0 0 0 0,-15.05 h -24.88 a 7.52,7.52 0 0 1 0,-15 l 57,0.08 a 7.52,7.52 0 0 0 0,-15 l -42.14,-0.09 a 7.52,7.52 0 0 1 0,-15 H 252 a 7.53,7.53 0 1 0 0,-15.05 H 7.63 a 7.53,7.53 0 0 0 0,15.05 h 30.5 a 7.52,7.52 0 0 1 0,15 v 0 a 7.53,7.53 0 0 0 0,15.05 h 53.46 a 7.52,7.52 0 1 1 0,15 h -23 a 7.53,7.53 0 0 0 0,15.05 h 38.21 a 7.53,7.53 0 1 1 0,15.05 v 0 a 7.52,7.52 0 0 0 0,15 h 11.38 19.13 a 7.53,7.53 0 0 1 0,15.05 v 0 a 7.52,7.52 0 0 0 0.1,15 h 30.28 a 7.55,7.55 0 0 0 0.11,-15.09 z m -26.69,-69.17 a 7.56,7.56 0 0 1 0.43,-1.4 6.73,6.73 0 0 1 0.69,-1.3 7.42,7.42 0 0 1 0.93,-1.15 7.41,7.41 0 0 1 2.45,-1.62 7.27,7.27 0 0 1 4.34,-0.44 7.93,7.93 0 0 1 1.41,0.44 7.6,7.6 0 0 1 1.29,0.69 7.42,7.42 0 0 1 1.15,0.93 8.12,8.12 0 0 1 0.94,1.15 7.33,7.33 0 0 1 0.69,1.3 7.56,7.56 0 0 1 0.43,1.4 7.79,7.79 0 0 1 0,2.94 7.59,7.59 0 0 1 -0.44,1.4 6.56,6.56 0 0 1 -0.69,1.31 7.85,7.85 0 0 1 -0.93,1.14 7.8,7.8 0 0 1 -2.44,1.62 7.16,7.16 0 0 1 -1.41,0.43 7.26,7.26 0 0 1 -1.47,0.15 7.57,7.57 0 0 1 -5.32,-2.2 7.85,7.85 0 0 1 -0.93,-1.14 7.12,7.12 0 0 1 -0.69,-1.31 7.56,7.56 0 0 1 -0.43,-1.4 7.26,7.26 0 0 1 -0.15,-1.47 7.33,7.33 0 0 1 0.15,-1.47 z M 76,189.43 a 7.56,7.56 0 0 1 -0.43,1.4 7.12,7.12 0 0 1 -0.69,1.31 7.91,7.91 0 0 1 -0.94,1.14 7.34,7.34 0 0 1 -1.14,0.93 7.74,7.74 0 0 1 -2.7,1.12 7.36,7.36 0 0 1 -1.48,0.15 7.16,7.16 0 0 1 -1.46,-0.15 7.69,7.69 0 0 1 -2.71,-1.12 7.42,7.42 0 0 1 -1.15,-0.93 7.41,7.41 0 0 1 -1.62,-2.45 7.56,7.56 0 0 1 -0.43,-1.4 7.28,7.28 0 0 1 0,-2.94 7.56,7.56 0 0 1 0.43,-1.4 7.33,7.33 0 0 1 0.69,-1.3 7,7 0 0 1 2.08,-2.08 6.73,6.73 0 0 1 1.3,-0.69 7.45,7.45 0 0 1 1.41,-0.44 7.6,7.6 0 0 1 6.78,2.06 7.48,7.48 0 0 1 0.94,1.15 6.73,6.73 0 0 1 0.69,1.3 7.56,7.56 0 0 1 0.43,1.4 7.28,7.28 0 0 1 0,2.94 z"
           id="path12"
           style="stroke-width:21.5031;fill:#ffffff;fill-opacity:1" />
      </g>
      <circle
         class="cls-1"
         cx="114.47"
         cy="293.42999"
         r="7.6199999"
         id="circle15"
         style="stroke-width:21.5031;fill:#ffffff;fill-opacity:1" />
      <circle
         class="cls-1"
         cx="83.970001"
         cy="263.19"
         r="7.6199999"
         id="circle17"
         style="stroke-width:21.5031;fill:#ffffff;fill-opacity:1" />
    </g>
  </g>
</svg>
