<svg xmlns="http://www.w3.org/2000/svg" xmlns:xlink="http://www.w3.org/1999/xlink" viewBox="0 0 259.56 301.06"><defs><style>.cls-1{fill:#002434;}</style><symbol id="Logo_Black" data-name="Logo_Black" viewBox="0 0 332.36 385.5"><g id="_Group_" data-name="&lt;Group&gt;"><path class="cls-1" d="M181,2.05,39.58,184.1a5.29,5.29,0,0,0,4.18,8.54H326.58a5.29,5.29,0,0,0,4.18-8.54L189.35,2.05A5.29,5.29,0,0,0,181,2.05Z"/><path class="cls-1" d="M93.33,60.54,1.05,184.29a5.26,5.26,0,0,0,4.21,8.4H189.83a5.26,5.26,0,0,0,4.21-8.4L101.76,60.54A5.26,5.26,0,0,0,93.33,60.54Z"/><path class="cls-1" d="M214.91,365.89h0a9.51,9.51,0,0,1-9.5-9.62,9.64,9.64,0,0,1,9.64-9.63h19.58a9.64,9.64,0,0,0,0-19.27h-41a9.63,9.63,0,0,1,0-19.26h58.28a9.64,9.64,0,0,0,0-19.27H220a9.63,9.63,0,1,1,0-19.26l73,.1a9.63,9.63,0,0,0,0-19.26l-54-.11a9.63,9.63,0,0,1,0-19.26h83.68a9.64,9.64,0,1,0,0-19.27H9.77a9.64,9.64,0,0,0,0,19.27H48.82a9.63,9.63,0,1,1,0,19.26h0a9.64,9.64,0,0,0,0,19.27h68.46a9.63,9.63,0,1,1,0,19.26H87.87a9.64,9.64,0,0,0,0,19.27l48.93,0a9.63,9.63,0,0,1,0,19.26h0a9.64,9.64,0,1,0,0,19.27h14.56l24.5,0a9.64,9.64,0,0,1,0,19.27h0a9.63,9.63,0,0,0,.13,19.25l38.77.06a9.67,9.67,0,0,0,.15-19.33Zm-34.19-88.56a10.38,10.38,0,0,1,.55-1.8,9.21,9.21,0,0,1,.89-1.67,9.36,9.36,0,0,1,1.19-1.46,10,10,0,0,1,1.47-1.2,10.13,10.13,0,0,1,1.66-.88,10.26,10.26,0,0,1,1.81-.56,9.86,9.86,0,0,1,3.75,0,10.26,10.26,0,0,1,1.81.56,10.13,10.13,0,0,1,1.66.88,9.94,9.94,0,0,1,2.67,2.66,9.83,9.83,0,0,1,.88,1.67,9.58,9.58,0,0,1,.55,1.8,9.4,9.4,0,0,1,0,3.76,8.73,8.73,0,0,1-.56,1.8,9.16,9.16,0,0,1-.88,1.67,9.5,9.5,0,0,1-2.66,2.65,9.59,9.59,0,0,1-3.47,1.44,9.09,9.09,0,0,1-1.88.19,9.71,9.71,0,0,1-6.81-2.82,9.36,9.36,0,0,1-1.19-1.46,9.21,9.21,0,0,1-.89-1.67,10.12,10.12,0,0,1-.55-1.8,9.4,9.4,0,0,1,0-3.76Zm-83.4-34.77a10.38,10.38,0,0,1-.55,1.8,9.55,9.55,0,0,1-.89,1.67,9.92,9.92,0,0,1-1.2,1.46,8.83,8.83,0,0,1-1.46,1.19,9.46,9.46,0,0,1-1.66.89,9.81,9.81,0,0,1-1.8.55,9.45,9.45,0,0,1-3.77,0,9.36,9.36,0,0,1-1.8-.55,9.21,9.21,0,0,1-1.67-.89,8.83,8.83,0,0,1-1.46-1.19,9.92,9.92,0,0,1-1.2-1.46,10.22,10.22,0,0,1-.88-1.67,9.58,9.58,0,0,1-.55-1.8,9.4,9.4,0,0,1,0-3.76A9.36,9.36,0,0,1,79,237a9.83,9.83,0,0,1,.88-1.67,9.71,9.71,0,0,1,2.66-2.66,9.83,9.83,0,0,1,1.67-.88,9.39,9.39,0,0,1,1.8-.56,9.71,9.71,0,0,1,8.69,2.64,9.42,9.42,0,0,1,1.2,1.46,9.21,9.21,0,0,1,.89,1.67,10.12,10.12,0,0,1,.55,1.8,9.91,9.91,0,0,1,0,3.76Z"/></g><circle class="cls-1" cx="146.57" cy="375.73" r="9.76"/><circle class="cls-1" cx="107.52" cy="337.01" r="9.76"/></symbol></defs><title>SDL_Logo_B</title><g id="Layer_2" data-name="Layer 2"><g id="Helix"><use width="332.36" height="385.5" transform="scale(0.78)" xlink:href="#Logo_Black"/></g></g></svg>