<svg xmlns="http://www.w3.org/2000/svg" viewBox="0 0 259.56 301.06"><defs><style>.cls-1{fill:#fff;}</style></defs><title>SDL_Logo_W</title><g id="Layer_2" data-name="Layer 2"><g id="Helix"><g id="_Group_" data-name="&lt;Group&gt;"><path class="cls-1" d="M141.35,1.6,30.91,143.77a4.13,4.13,0,0,0,3.27,6.67H255.05a4.13,4.13,0,0,0,3.26-6.67L147.88,1.6A4.14,4.14,0,0,0,141.35,1.6Z"/><path class="cls-1" d="M72.89,47.28.82,143.93a4.1,4.1,0,0,0,3.29,6.55H148.25a4.1,4.1,0,0,0,3.29-6.55L79.47,47.28A4.11,4.11,0,0,0,72.89,47.28Z"/><path class="cls-1" d="M167.83,285.75h0a7.42,7.42,0,0,1-7.41-7.52,7.52,7.52,0,0,1,7.52-7.52h15.29a7.52,7.52,0,1,0,0-15h-32a7.53,7.53,0,0,1,0-15H196.7a7.53,7.53,0,0,0,0-15.05H171.82a7.52,7.52,0,0,1,0-15l57,.08a7.52,7.52,0,0,0,0-15l-42.14-.09a7.52,7.52,0,0,1,0-15H252a7.53,7.53,0,1,0,0-15.05H7.63a7.53,7.53,0,0,0,0,15.05h30.5a7.52,7.52,0,0,1,0,15h0a7.53,7.53,0,0,0,0,15.05H91.59a7.52,7.52,0,1,1,0,15h-23a7.53,7.53,0,0,0,0,15.05l38.21,0a7.53,7.53,0,1,1,0,15.05h0a7.52,7.52,0,0,0,0,15h11.38l19.13,0a7.53,7.53,0,0,1,0,15.05h0a7.52,7.52,0,0,0,.1,15l30.28,0a7.55,7.55,0,0,0,.11-15.09Zm-26.69-69.17a7.56,7.56,0,0,1,.43-1.4,6.73,6.73,0,0,1,.69-1.3,7.42,7.42,0,0,1,.93-1.15,7.41,7.41,0,0,1,2.45-1.62,7.27,7.27,0,0,1,4.34-.44,7.93,7.93,0,0,1,1.41.44,7.6,7.6,0,0,1,1.29.69,7.42,7.42,0,0,1,1.15.93,8.12,8.12,0,0,1,.94,1.15,7.33,7.33,0,0,1,.69,1.3,7.56,7.56,0,0,1,.43,1.4,7.79,7.79,0,0,1,0,2.94,7.59,7.59,0,0,1-.44,1.4,6.56,6.56,0,0,1-.69,1.31,7.85,7.85,0,0,1-.93,1.14,7.8,7.8,0,0,1-2.44,1.62,7.16,7.16,0,0,1-1.41.43,7.26,7.26,0,0,1-1.47.15,7.57,7.57,0,0,1-5.32-2.2,7.85,7.85,0,0,1-.93-1.14,7.12,7.12,0,0,1-.69-1.31,7.56,7.56,0,0,1-.43-1.4,7.26,7.26,0,0,1-.15-1.47A7.33,7.33,0,0,1,141.14,216.58ZM76,189.43a7.56,7.56,0,0,1-.43,1.4,7.12,7.12,0,0,1-.69,1.31,7.91,7.91,0,0,1-.94,1.14,7.34,7.34,0,0,1-1.14.93,7.74,7.74,0,0,1-2.7,1.12,7.36,7.36,0,0,1-1.48.15,7.16,7.16,0,0,1-1.46-.15,7.69,7.69,0,0,1-2.71-1.12,7.42,7.42,0,0,1-1.15-.93,7.41,7.41,0,0,1-1.62-2.45,7.56,7.56,0,0,1-.43-1.4,7.28,7.28,0,0,1,0-2.94,7.56,7.56,0,0,1,.43-1.4,7.33,7.33,0,0,1,.69-1.3,7,7,0,0,1,2.08-2.08,6.73,6.73,0,0,1,1.3-.69,7.45,7.45,0,0,1,1.41-.44,7.6,7.6,0,0,1,6.78,2.06,7.48,7.48,0,0,1,.94,1.15,6.73,6.73,0,0,1,.69,1.3,7.56,7.56,0,0,1,.43,1.4,7.28,7.28,0,0,1,0,2.94Z"/></g><circle class="cls-1" cx="114.47" cy="293.43" r="7.62"/><circle class="cls-1" cx="83.97" cy="263.19" r="7.62"/></g></g></svg>