<?xml version="1.0" encoding="UTF-8" standalone="no"?>
<svg
        xmlns="http://www.w3.org/2000/svg"
        viewBox="0 0 300 300"
        version="1.1"
        width="300"
        height="300"
>
    <path
            class="cls-1"
            d="M 161.40437,1.5944674 51.347566,143.27118 a 4.1156702,4.1156702 0 0 0 3.258654,6.64686 h 220.10365 a 4.1156702,4.1156702 0 0 0 3.24869,-6.64686 L 167.91172,1.5944674 a 4.1256355,4.1256355 0 0 0 -6.50735,0 z"
            style="fill:#ffffff;fill-opacity:1;stroke-width:0.999998"
    />
    <path
            class="cls-1"
            d="M 93.181908,47.115972 21.361969,143.43063 a 4.0857743,4.0857743 0 0 0 3.278585,6.52727 H 168.28043 a 4.0857743,4.0857743 0 0 0 3.27859,-6.52727 L 99.739078,47.115972 a 4.0957396,4.0957396 0 0 0 -6.55717,0 z"
            style="fill:#ffffff;fill-opacity:1;stroke-width:0.999998"
    />
    <path
            class="cls-1"
            d="m 187.7925,284.75856 v 0 a 7.3942549,7.3942549 0 0 1 -7.38429,-7.49391 7.4939079,7.4939079 0 0 1 7.4939,-7.49391 h 15.23695 a 7.4939079,7.4939079 0 1 0 0,-14.94796 h -31.88897 a 7.5038732,7.5038732 0 0 1 0,-14.94795 h 45.31224 a 7.5038732,7.5038732 0 0 0 0,-14.99778 h -24.79368 a 7.4939079,7.4939079 0 0 1 0,-14.94796 l 56.80223,0.0797 a 7.4939079,7.4939079 0 0 0 0,-14.94796 l -41.99379,-0.0897 a 7.4939079,7.4939079 0 0 1 0,-14.94795 h 65.09336 a 7.5038732,7.5038732 0 1 0 0,-14.99778 H 28.14834 a 7.5038732,7.5038732 0 0 0 0,14.99778 h 30.394175 a 7.4939079,7.4939079 0 0 1 0,14.94795 v 0 a 7.5038732,7.5038732 0 0 0 0,14.99779 h 53.274515 a 7.4939079,7.4939079 0 1 1 0,14.94795 H 88.896828 a 7.5038732,7.5038732 0 0 0 0,14.99778 h 38.077422 a 7.5038732,7.5038732 0 1 1 0,14.99778 v 0 a 7.4939079,7.4939079 0 0 0 0,14.94796 h 11.34052 19.06362 a 7.5038732,7.5038732 0 0 1 0,14.99778 v 0 a 7.4939079,7.4939079 0 0 0 0.0996,14.94795 h 30.17494 a 7.5238038,7.5238038 0 0 0 0.10962,-15.03764 z m -26.5974,-68.93001 a 7.5337691,7.5337691 0 0 1 0.42851,-1.39514 6.706649,6.706649 0 0 1 0.68761,-1.29549 7.3942549,7.3942549 0 0 1 0.92677,-1.14601 7.3842896,7.3842896 0 0 1 2.4415,-1.61438 7.2447754,7.2447754 0 0 1 4.32494,-0.43847 7.9024854,7.9024854 0 0 1 1.40511,0.43847 7.5736304,7.5736304 0 0 1 1.28552,0.68761 7.3942549,7.3942549 0 0 1 1.14601,0.92677 8.0918261,8.0918261 0 0 1 0.93674,1.14601 7.3045672,7.3045672 0 0 1 0.68761,1.29549 7.5337691,7.5337691 0 0 1 0.4285,1.39514 7.7629711,7.7629711 0 0 1 0,2.9298 7.5636651,7.5636651 0 0 1 -0.43847,1.39515 6.5372388,6.5372388 0 0 1 -0.68761,1.30545 7.8227629,7.8227629 0 0 1 -0.92677,1.13604 7.7729364,7.7729364 0 0 1 -2.43153,1.61438 7.135157,7.135157 0 0 1 -1.40511,0.42851 7.2348101,7.2348101 0 0 1 -1.4649,0.14948 7.5437344,7.5437344 0 0 1 -5.30154,-2.19237 7.8227629,7.8227629 0 0 1 -0.92677,-1.13604 7.0952958,7.0952958 0 0 1 -0.68761,-1.30545 7.5337691,7.5337691 0 0 1 -0.42851,-1.39515 7.2348101,7.2348101 0 0 1 -0.14948,-1.4649 7.3045672,7.3045672 0 0 1 0.14948,-1.4649 z M 96.281118,188.77276 a 7.5337691,7.5337691 0 0 1 -0.428508,1.39514 7.0952958,7.0952958 0 0 1 -0.687606,1.30545 7.8825548,7.8825548 0 0 1 -0.936739,1.13605 7.3145325,7.3145325 0 0 1 -1.136044,0.92677 7.7131446,7.7131446 0 0 1 -2.690632,1.11611 7.3344631,7.3344631 0 0 1 -1.474865,0.14948 7.135157,7.135157 0 0 1 -1.454934,-0.14948 7.6633181,7.6633181 0 0 1 -2.700598,-1.11611 7.3942549,7.3942549 0 0 1 -1.146009,-0.92677 7.3842896,7.3842896 0 0 1 -1.614379,-2.4415 7.5337691,7.5337691 0 0 1 -0.428509,-1.39514 7.2547407,7.2547407 0 0 1 0,-2.9298 7.5337691,7.5337691 0 0 1 0.428509,-1.39515 7.3045672,7.3045672 0 0 1 0.687605,-1.29549 6.9757122,6.9757122 0 0 1 2.072783,-2.07278 6.706649,6.706649 0 0 1 1.29549,-0.6876 7.4241508,7.4241508 0 0 1 1.405108,-0.43848 7.5736304,7.5736304 0 0 1 6.756475,2.05285 7.4540467,7.4540467 0 0 1 0.936739,1.14601 6.706649,6.706649 0 0 1 0.687606,1.29549 7.5337691,7.5337691 0 0 1 0.428508,1.39515 7.2547407,7.2547407 0 0 1 0,2.9298 z"
            style="fill:#ffffff;fill-opacity:1;stroke-width:0.999998"
    />
    <circle
            class="cls-1"
            cx="134.61765"
            cy="292.4119"
            r="7.5935607"
            style="fill:#ffffff;fill-opacity:1;stroke-width:0.999998"
    />
    <circle
            class="cls-1"
            cx="104.22346"
            cy="262.27682"
            r="7.5935607"
            style="fill:#ffffff;fill-opacity:1;stroke-width:0.999998"
    />
</svg>
